<?xml version="1.0" encoding="utf-8"?>
<svg viewBox="0 0 353 341" xmlns="http://www.w3.org/2000/svg">
  <defs/>
  <path d="M 68.821 330.859 C 77.941 337.485 88.53 340.683 99.042 340.683 C 114.862 340.683 130.474 333.439 140.522 319.824 C 140.551 319.796 140.578 319.765 140.604 319.734 C 140.628 319.702 140.652 319.67 140.675 319.638 L 140.71 319.588 C 140.734 319.555 140.757 319.521 140.779 319.49 L 176.334 270.581 L 211.889 319.49 C 211.923 319.543 211.96 319.583 211.995 319.629 C 212.011 319.65 212.026 319.671 212.043 319.696 C 228.79 342.514 260.969 347.541 283.873 330.885 C 306.803 314.231 311.93 282.028 295.389 259.031 L 295.353 258.973 C 295.322 258.925 295.298 258.889 295.26 258.851 L 259.783 209.915 L 317.263 191.198 C 344.264 182.406 359.103 153.247 350.318 126.226 C 341.534 99.207 312.42 84.357 285.393 93.123 L 227.915 111.763 L 227.889 51.253 C 227.861 22.84 204.751 -0.286 176.36 -0.286 C 147.968 -0.286 124.858 22.84 124.832 51.278 L 124.781 111.737 L 67.301 93.097 C 67.278 93.097 67.25 93.092 67.223 93.084 C 67.186 93.074 67.149 93.06 67.12 93.045 C 40.145 84.383 11.135 99.233 2.375 126.202 C -6.384 153.17 8.353 182.226 35.224 191.095 C 35.249 191.102 35.272 191.111 35.293 191.121 L 35.388 191.157 L 35.431 191.172 L 92.884 209.889 L 57.407 258.825 C 57.394 258.851 57.375 258.876 57.356 258.902 C 57.336 258.928 57.317 258.954 57.304 258.979 C 40.738 281.977 45.891 314.205 68.821 330.859 Z"/>
</svg>