<?xml version="1.0"?>
<svg width="353" height="341" xmlns="http://www.w3.org/2000/svg" xmlns:svg="http://www.w3.org/2000/svg">
  <defs/>
  <path d="m94.17,291.47c6.9,5.01 14.91,7.43 22.86,7.43c11.97,0 23.77,-5.48 31.37,-15.78c0.02,-0.02 0.05,-0.05 0.06,-0.07c0.02,-0.02 0.04,-0.05 0.06,-0.07l0.02,-0.04c0.02,-0.02 0.04,-0.05 0.05,-0.08l26.89,-36.99l26.9,36.99c0.02,0.04 0.05,0.07 0.08,0.11c0.01,0.02 0.02,0.03 0.03,0.05c12.67,17.25 37.01,21.06 54.33,8.46c17.34,-12.59 21.22,-36.95 8.71,-54.35l-0.03,-0.05c-0.02,-0.03 -0.04,-0.06 -0.07,-0.09l-26.84,-37.02l43.48,-14.15c20.42,-6.65 31.65,-28.7 25.01,-49.14c-6.65,-20.44 -28.67,-31.67 -49.11,-25.04l-43.48,14.1l-0.02,-45.77c-0.02,-21.49 -17.5,-38.98 -38.98,-38.98c-21.47,0 -38.95,17.49 -38.98,39.01l-0.04,45.73l-43.48,-14.1c-0.02,0 -0.04,-0.01 -0.06,-0.02c-0.02,-0.01 -0.05,-0.02 -0.08,-0.02c-20.4,-6.56 -42.35,4.67 -48.97,25.07c-6.63,20.4 4.52,42.38 24.84,49.08c0.02,0.01 0.04,0.02 0.05,0.02l0.08,0.03l0.03,0.01l43.45,14.16l-26.83,37.01c-0.02,0.02 -0.02,0.05 -0.04,0.06c-0.02,0.02 -0.03,0.04 -0.05,0.06c-12.53,17.4 -8.63,41.77 8.71,54.37z" id="svg_1"/>
</svg>